<svg width="199" height="53" viewBox="0 0 199 53" fill="none" xmlns="http://www.w3.org/2000/svg">
<g clip-path="url(#clip0_39_3)" filter="url(#filter0_d_39_3)">
<path d="M46.9164 2.025C46.6824 2.6685 46.2729 3.492 45.9354 4.005C45.4134 4.7925 44.6709 5.4225 43.9374 5.7015C43.6224 5.8185 43.3794 5.958 43.3209 6.0525C43.3029 6.084 43.2489 6.156 43.1994 6.2145L43.1139 6.3225L42.9969 6.1965C42.8709 6.057 42.7989 6.0705 42.6324 6.255C42.4749 6.4305 40.5444 7.362 39.8469 7.6005C39.1314 7.848 39.0504 7.884 38.6139 8.163C37.7679 8.712 36.4089 9.252 35.0139 9.603C34.6719 9.693 33.6279 9.918 32.7054 10.1025C29.6319 10.7235 28.3989 11.1015 26.8509 11.889C25.9599 12.339 25.4694 12.6855 24.7989 13.338C23.7324 14.373 22.7964 15.8175 21.9144 17.7885C21.7209 18.2295 21.5454 18.6075 21.5274 18.621C21.4779 18.6705 21.5499 18.2385 21.6849 17.7075C21.9819 16.524 22.5804 15.2865 23.4264 14.103L23.7819 13.608L23.5299 13.743C23.0754 13.9815 22.0269 14.7015 21.5724 15.0885C20.5149 15.9795 19.6554 17.055 18.9849 18.324C18.7104 18.8415 18.6834 18.8505 18.7554 18.396C18.7824 18.2565 18.7824 18.0855 18.7644 18.0135C18.7329 17.892 18.7239 17.901 18.5169 18.2475C17.7744 19.5165 17.2119 21.078 16.9644 22.59C16.8834 23.0805 16.7889 23.958 16.7754 24.3L16.7709 24.4125L16.7349 24.3C16.7124 24.237 16.6629 23.9895 16.6224 23.7465C16.5144 23.1435 16.4379 23.157 16.3974 23.7915C16.3614 24.291 16.4019 26.262 16.4469 26.505C16.5009 26.7705 16.3929 26.6265 16.1184 26.064C15.8484 25.5195 15.5199 24.9795 15.2769 24.6825C15.1689 24.5475 15.1689 24.552 15.3174 25.0425C15.6819 26.2575 15.9744 28.1115 15.9699 29.1555L15.9654 29.3625L15.8574 29.232C15.7989 29.16 15.6774 28.926 15.5874 28.7145C15.4389 28.3635 15.1779 27.9 15.1329 27.9C15.1014 27.9 15.1509 28.1565 15.3174 28.89C15.3984 29.25 15.4839 29.664 15.5019 29.808L15.5334 30.0735L15.4029 29.979C15.1959 29.8305 14.0754 28.674 13.8009 28.3275C13.4904 27.9315 13.1394 27.4095 12.9054 26.9865L12.7209 26.6625L12.7479 27.2025C12.8064 28.6155 13.3059 29.862 14.2554 30.9915C14.5569 31.3515 14.5479 31.3695 14.1114 31.2255C13.7559 31.1085 13.3554 30.8745 12.8289 30.4695C12.5724 30.276 12.4149 30.177 12.4149 30.222C12.4149 30.258 12.4554 30.3975 12.5004 30.537C12.6894 31.068 13.3689 31.8375 13.9899 32.211C14.4444 32.4855 14.6064 32.607 14.5704 32.6475C14.5524 32.661 14.3904 32.697 14.2104 32.7285C14.0259 32.76 13.8774 32.805 13.8774 32.8275C13.8774 32.8995 14.2779 32.9895 14.5389 32.976C14.8674 32.9535 15.0654 32.8185 15.2949 32.4675C15.3939 32.319 15.4749 32.211 15.4749 32.229C15.4749 32.2425 15.3444 32.589 15.1869 32.994C14.2869 35.2935 13.3419 38.2365 12.7974 40.4505C12.5589 41.4225 12.4824 41.4855 11.6454 41.49C11.1009 41.49 9.64288 41.292 9.02188 41.13C8.52688 41.004 7.73938 40.7115 7.32088 40.4955C6.89788 40.2795 6.74488 40.095 6.74488 39.8115C6.74488 39.4695 7.28038 38.9475 7.98238 38.6055C8.56738 38.322 9.92638 38.025 10.9524 37.9575C11.4969 37.917 11.7714 37.863 11.9199 37.764L12.0324 37.692L11.8524 37.656C11.0874 37.5165 9.66988 37.7325 8.36488 38.1825C7.74388 38.394 6.54238 38.9925 6.10588 39.3075L5.75488 39.5595V39.9555V40.356L5.97088 40.536C6.65038 41.103 7.34788 41.382 8.79238 41.6745C9.16138 41.751 9.74188 41.886 10.0749 41.976L10.6824 42.1425L11.7669 42.156L12.8559 42.1695L13.0359 41.9625C13.2609 41.7105 13.3419 41.535 13.4184 41.166C13.4949 40.806 13.4994 40.7925 14.1429 39.78C14.7099 38.889 15.0069 38.475 15.3849 38.0475C15.5154 37.899 15.6774 37.656 15.7494 37.5075C15.8619 37.269 15.8799 37.188 15.8799 36.8235C15.8799 36.117 16.0104 35.6085 16.4874 34.47C16.6269 34.137 16.7889 33.741 16.8519 33.5925C16.9149 33.444 17.0229 33.2505 17.0949 33.165L17.2254 33.0075L17.3424 33.2595C17.4054 33.399 17.5269 33.813 17.6124 34.182C17.8149 35.055 17.8149 35.055 17.8869 35.055C17.9364 35.055 17.9499 34.893 17.9499 34.1775C17.9499 33.3045 17.9499 33.2955 18.0444 33.345C18.0939 33.372 18.1884 33.4755 18.2559 33.5745C18.4134 33.804 18.8589 34.344 18.8769 34.3215C18.8859 34.3125 18.8139 34.074 18.7149 33.7905C18.5484 33.3135 18.4989 33.075 18.5619 33.075C18.5754 33.075 18.8364 33.219 19.1379 33.39C19.5834 33.6465 20.2314 33.93 20.3709 33.93C20.4384 33.93 20.0559 33.5835 19.7724 33.39C19.3854 33.1245 18.9849 32.751 18.9849 32.661C18.9849 32.625 19.0119 32.5575 19.0479 32.5125C19.1019 32.436 19.1334 32.4315 19.5384 32.481C20.0289 32.544 20.3619 32.544 20.4924 32.4945C20.5779 32.4585 20.5779 32.454 20.4699 32.409C20.4069 32.382 20.1594 32.3145 19.9164 32.2605C19.6779 32.202 19.4799 32.148 19.4799 32.1345C19.4799 32.121 19.7364 32.04 20.0559 31.9545C20.8794 31.7385 21.7974 31.401 22.4724 31.0725C23.0709 30.78 23.5974 30.4695 23.5569 30.4335C23.5479 30.42 23.4984 30.4335 23.4489 30.4605C23.2734 30.555 21.8784 30.9555 21.4104 31.0455C20.8974 31.1445 20.0244 31.2165 20.1774 31.1445C20.2269 31.122 20.5104 31.0275 20.8074 30.9375C22.2429 30.4965 23.7054 29.7495 25.1364 28.728C25.4604 28.494 25.7439 28.2825 25.7574 28.26C25.8024 28.1925 25.6224 28.206 25.0599 28.323C24.2319 28.494 23.7414 28.53 24.1014 28.3905C24.1689 28.368 24.4479 28.287 24.7314 28.215C25.9014 27.909 26.8644 27.351 27.7959 26.442C28.7859 25.479 29.6454 24.147 30.4329 22.3605C30.6894 21.78 30.7209 21.672 30.6399 21.6225C30.6129 21.609 30.3204 21.6585 29.9829 21.735C29.4429 21.8565 29.2674 21.879 29.3394 21.8025C29.3529 21.7935 29.8569 21.51 30.4599 21.1815C31.0629 20.8485 31.5669 20.556 31.5759 20.5245C31.6029 20.448 31.5039 20.4615 30.2529 20.6595C29.6184 20.7585 29.0919 20.8305 29.0829 20.8215C29.0514 20.79 30.0324 20.439 30.6849 20.2455C31.5714 19.9845 31.5084 20.034 31.9674 19.2195C32.6739 17.964 33.7404 16.893 35.3649 15.8085C36.1614 15.2775 38.1504 14.076 38.6229 13.8375C38.8704 13.7115 39.0909 13.581 39.1134 13.5405C39.2169 13.374 39.1134 13.2435 38.7174 13.041C38.5059 12.9375 38.3349 12.834 38.3349 12.8115C38.3349 12.7485 38.8749 12.78 39.2664 12.8745C39.8919 13.023 40.3959 12.9375 40.9809 12.582C41.3184 12.3795 42.5199 11.3715 43.0059 10.89C43.4469 10.449 44.0139 9.7965 44.3919 9.2925C45.7104 7.5375 46.5069 5.7465 46.9749 3.474C47.0964 2.889 47.1099 2.7405 47.1009 2.1825L47.0874 1.557L46.9164 2.025ZM40.8909 9.099C40.8414 9.171 40.4094 9.3825 39.4779 9.783C36.5799 11.0385 33.7539 12.4425 31.8864 13.563C27.8229 15.9975 24.6639 18.819 21.2979 23.04C20.0019 24.669 18.5349 26.793 17.3649 28.7325C16.5999 30.006 16.2759 30.519 16.2534 30.492C16.2264 30.4695 16.9914 29.061 17.4909 28.215C19.6959 24.4665 21.4464 22.1895 24.3579 19.278C25.9329 17.7075 27.4944 16.3125 28.6374 15.4665C29.4339 14.8725 31.1394 13.752 31.9899 13.266C33.7269 12.267 37.2729 10.539 39.3564 9.6705C39.8784 9.4545 40.4454 9.2025 40.6164 9.1215C40.7829 9.036 40.9314 8.973 40.9404 8.982C40.9494 8.991 40.9269 9.045 40.8909 9.099ZM26.9454 17.964C26.8149 18.2115 26.5899 18.4995 26.2074 18.9C25.4199 19.7235 23.2689 22.284 22.0539 23.8455C20.6409 25.6545 19.5159 27.3645 18.4314 29.349C17.5224 31.005 16.9959 32.157 16.0329 34.5735C15.1284 36.8415 15.0429 37.026 14.6874 37.3815C14.5299 37.539 14.3634 37.665 14.3184 37.665C14.2014 37.665 14.1249 37.5795 14.1249 37.44C14.1249 37.2285 14.5974 35.9055 15.1239 34.65C16.9689 30.258 18.1164 28.233 20.7399 24.7275C22.3194 22.617 23.4489 21.3165 25.5054 19.2465C26.7834 17.9685 27.0894 17.694 26.9454 17.964Z" fill="white"/>
<path d="M32.71 30.5415C31.7155 30.564 30.415 30.6855 28.4125 30.942C27.3595 31.0725 26.761 31.1895 26.2165 31.3695C25.1185 31.7295 24.088 32.4135 23.818 32.9625C23.719 33.174 23.701 33.255 23.719 33.5205C23.7325 33.7725 23.7595 33.858 23.8585 33.993C23.9305 34.083 24.034 34.191 24.097 34.227C24.232 34.317 25.555 34.7985 25.852 34.8705C26.266 34.965 27.6925 35.1 28.5475 35.1315C30.1675 35.181 31.3645 34.9425 33.0205 34.2405C33.6325 33.984 33.889 33.795 34.0195 33.5025C34.132 33.2595 34.132 32.868 34.015 32.6835C33.835 32.382 33.1105 32.1615 32.6155 32.247L32.3725 32.292L32.6245 32.346C33.223 32.481 33.655 32.796 33.655 33.102C33.655 33.345 33.331 33.66 32.827 33.912C31.387 34.623 28.0345 34.821 25.7125 34.3395C24.4705 34.0785 24.115 33.84 24.115 33.273C24.115 32.9985 24.2725 32.7285 24.556 32.508C24.844 32.2875 26.023 31.716 26.5405 31.545C27.0355 31.383 27.445 31.311 28.5475 31.1895C31.783 30.825 34.906 30.843 37.021 31.2345C38.4565 31.4955 40.0945 32.112 40.81 32.661C41.269 33.012 41.6515 33.435 41.692 33.633C41.746 33.9255 41.6425 34.1415 41.305 34.4745C40.9135 34.8615 40.756 34.9515 39.91 35.2575C38.38 35.82 37.7365 36.0045 36.4 36.2655C33.8035 36.7695 29.182 37.1565 24.79 37.2375C24.034 37.251 23.2645 37.2735 23.08 37.2825C22.8955 37.2915 21.5635 37.3005 20.1235 37.305C17.9095 37.305 17.5 37.314 17.5 37.368C17.5 37.404 17.536 37.4445 17.581 37.4625C17.743 37.53 20.9155 37.584 23.305 37.5615C25.5865 37.539 28.9435 37.4265 31.045 37.305C34.681 37.089 37.642 36.6435 39.505 36.0315C40.3375 35.7615 41.3995 35.2395 41.7415 34.9425C42.2455 34.5015 42.412 33.831 42.1465 33.291C42.0025 33.003 41.6065 32.607 41.1655 32.319C40.5085 31.887 39.2575 31.356 38.317 31.1175C37.291 30.8565 35.4595 30.6135 34.195 30.573C33.835 30.564 33.4615 30.546 33.3625 30.5415C33.2635 30.537 32.971 30.537 32.71 30.5415Z" fill="white"/>
<path d="M40.4771 9.21148C40.2611 9.31948 39.6941 9.57148 39.2171 9.76498C38.1551 10.197 36.9581 10.755 34.8251 11.817C32.4716 12.987 31.4906 13.5405 29.9651 14.571C28.4531 15.588 27.5441 16.3215 25.7801 17.9325C23.9126 19.6425 21.7751 21.978 20.4071 23.805C19.4531 25.074 17.9456 27.432 17.0546 29.0475C16.8476 29.4165 16.6316 29.808 16.5686 29.9115C16.5101 30.0195 16.4696 30.105 16.4831 30.105C16.4921 30.105 16.8071 29.5965 17.1806 28.98C19.6601 24.867 22.1801 21.618 25.1771 18.6705C27.4946 16.3935 30.1316 14.4585 33.2276 12.7575C33.9926 12.339 37.0481 10.8225 37.8851 10.449C38.8931 9.99898 40.6796 9.22498 40.7156 9.22498C40.7606 9.22498 40.9181 9.04948 40.8956 9.02698C40.8866 9.01798 40.6976 9.10348 40.4771 9.21148Z" fill="#ECECEC"/>
<path d="M25.4831 19.314C23.2871 21.5235 21.9776 23.058 20.2271 25.461C18.7781 27.45 17.8421 28.9575 16.9376 30.7575C15.6011 33.399 14.0261 37.26 14.1701 37.53C14.2466 37.674 14.3861 37.6335 14.6426 37.3905C14.9711 37.08 15.1286 36.7605 15.8576 34.92C16.7216 32.751 17.0591 31.968 17.6846 30.726C19.0886 27.9225 20.4926 25.7355 22.5221 23.1975C23.6966 21.7305 25.5416 19.5525 26.1491 18.918C26.6171 18.432 26.9726 17.955 26.8736 17.955C26.8556 17.955 26.2301 18.567 25.4831 19.314Z" fill="url(#paint0_linear_39_3)"/>
<path d="M4.85498 36.5175C4.85498 36.5625 4.90448 36.585 5.01248 36.585C5.12048 36.585 5.16998 36.5625 5.16998 36.5175C5.16998 36.4725 5.12048 36.45 5.01248 36.45C4.90448 36.45 4.85498 36.4725 4.85498 36.5175Z" fill="#ECECEC"/>
<path d="M4.98999 40.6575C4.98999 40.707 5.02149 40.725 5.09349 40.716C5.14749 40.707 5.19249 40.68 5.19249 40.6575C5.19249 40.6305 5.14749 40.608 5.09349 40.599C5.02149 40.59 4.98999 40.608 4.98999 40.6575Z" fill="#ECECEC"/>
<path d="M4.972 42.5475C4.954 42.597 4.981 42.615 5.08 42.615C5.179 42.615 5.206 42.597 5.188 42.5475C5.17 42.5115 5.125 42.48 5.08 42.48C5.035 42.48 4.99 42.5115 4.972 42.5475Z" fill="#ECECEC"/>
<path d="M4.98999 43.0425C4.98999 43.092 5.02149 43.11 5.09349 43.101C5.14749 43.092 5.19249 43.065 5.19249 43.0425C5.19249 43.0155 5.14749 42.993 5.09349 42.984C5.02149 42.975 4.98999 42.993 4.98999 43.0425Z" fill="#ECECEC"/>
<path d="M4.97188 43.5375C4.98988 43.5735 5.03938 43.605 5.08438 43.605C5.12938 43.605 5.16988 43.5735 5.16988 43.5375C5.16988 43.497 5.12938 43.47 5.05738 43.47C4.97638 43.47 4.95388 43.488 4.97188 43.5375Z" fill="#ECECEC"/>
<path d="M4.8999 44.055C4.8999 44.0775 4.9314 44.1 4.9674 44.1C5.0034 44.1 5.0349 44.0775 5.0349 44.055C5.0349 44.028 5.0034 44.01 4.9674 44.01C4.9314 44.01 4.8999 44.028 4.8999 44.055Z" fill="#ECECEC"/>
</g>
<path d="M111.634 10.3178C111.184 11.475 112.341 12.825 113.306 12.2464C114.399 11.5393 114.141 9.28928 113.049 9.28928C112.47 9.28928 111.891 9.73928 111.634 10.3178Z" fill="#ECECEC"/>
<path d="M115.299 11.0892C115.299 12.6964 116.584 13.7892 118.513 13.7892C120.441 13.7892 121.727 12.6964 121.727 11.0892C121.727 9.54639 121.213 9.61067 119.863 11.3464C118.706 12.7607 117.227 12.5035 117.227 10.8321C117.227 10.3178 116.777 9.9321 116.263 9.9321C115.749 9.9321 115.299 10.4464 115.299 11.0892Z" fill="#ECECEC"/>
<path d="M54.4844 17.1321C53.7772 25.1036 53.7772 24.975 54.9344 25.2321C55.7701 25.3607 56.0272 24.3321 56.5415 19.4464L57.1201 13.4679L60.8487 13.275C66.313 13.0179 65.3487 11.6036 59.563 11.3464L55.063 11.1536L54.4844 17.1321Z" fill="#ECECEC"/>
<path d="M131.692 18.2892C129.699 22.275 128.477 25.4892 128.799 25.6821C129.956 26.3892 130.856 25.2964 133.234 20.025L135.613 14.8178L136.834 19.5107C138.313 24.975 139.084 26.3892 140.627 25.8107C141.592 25.425 141.592 25.2321 140.756 23.9464C140.242 23.1107 139.149 19.9607 138.377 16.8107C137.477 13.2107 136.706 11.2178 136.127 11.2178C135.613 11.2178 133.62 14.3678 131.692 18.2892Z" fill="#ECECEC"/>
<path d="M64.32 19.0607C64.1272 21.6321 63.7415 25.2964 63.4843 27.0964C63.0986 29.9893 63.2272 30.5035 64.1272 30.5035C64.77 30.5035 65.1557 29.9893 65.1557 29.025C65.1557 26.1321 65.9272 24.7178 67.4057 24.7178C70.2986 24.7178 73.5772 18.9321 72.5486 15.7178C72.0343 14.0464 69.7843 14.0464 67.92 15.8464L66.4415 17.1964V15.8464C66.4415 15.075 66.0557 14.4321 65.5415 14.4321C64.9629 14.4321 64.5772 15.7821 64.32 19.0607ZM70.9415 17.9035C70.9415 18.4178 70.17 19.7678 69.27 20.8607C66.8915 23.625 65.7343 22.4678 67.7272 19.3178C69.1415 17.0035 70.9415 16.2321 70.9415 17.9035Z" fill="#ECECEC"/>
<path d="M100.256 15.8464C100.063 16.6821 99.8058 19.3178 99.613 21.825C99.4201 24.2678 99.0987 27.2893 98.8415 28.3821C98.5201 30.0535 98.6487 30.5035 99.4201 30.5035C100.577 30.5035 101.156 29.1535 101.156 26.5821C101.156 25.0393 101.413 24.7178 102.763 24.7178C104.627 24.7178 107.392 22.0821 107.97 19.8321C108.163 19.0607 108.227 17.5821 108.099 16.6178C107.842 14.1107 105.013 13.6607 103.47 15.8464L102.442 17.2607V15.8464C102.442 13.9821 100.642 13.9821 100.256 15.8464ZM105.656 20.1535C105.27 20.8607 104.434 21.7607 103.727 22.1464C101.734 23.175 102.056 20.7964 104.242 18.225C105.849 16.2321 105.977 16.1678 106.17 17.4535C106.299 18.225 106.042 19.4464 105.656 20.1535Z" fill="#ECECEC"/>
<path d="M144.227 16.4893C142.556 19.3178 141.977 22.3393 142.942 24.075C143.97 26.0036 147.184 25.6178 148.92 23.3036C150.656 20.925 149.949 20.4107 147.506 22.2107C145.963 23.3678 145.32 23.4964 144.742 22.9178C144.163 22.3393 144.484 21.6321 146.349 19.9607C149.306 17.2607 149.692 14.4321 147.12 14.4321C145.963 14.4321 145.127 15.075 144.227 16.4893ZM146.156 17.9678C145.706 18.5464 145.192 18.8036 144.999 18.6107C144.806 18.4821 145.063 17.9036 145.513 17.325C145.963 16.7464 146.477 16.4893 146.67 16.6821C146.863 16.8107 146.606 17.3893 146.156 17.9678Z" fill="#ECECEC"/>
<path d="M166.856 15.9107C165.249 17.6464 164.413 21.1821 165.056 23.6893C165.377 24.975 165.892 25.3607 167.242 25.3607C169.106 25.3607 171.87 23.1107 171.87 21.6321C171.87 20.6679 170.842 20.6036 170.263 21.5036C170.07 21.825 169.299 22.4679 168.592 22.7893C166.277 24.075 166.534 21.825 168.977 19.3821C170.327 18.0321 171.227 16.5536 171.099 15.9107C170.777 14.175 168.463 14.175 166.856 15.9107Z" fill="#ECECEC"/>
<path d="M182.477 18.0964C182.284 20.1535 181.899 22.6607 181.706 23.625C181.449 25.1678 181.577 25.425 182.606 25.2321C183.313 25.1035 183.827 24.3964 183.956 23.2393C184.213 20.9893 185.113 21.0535 186.334 23.4321C187.234 25.1678 189.034 25.9393 189.999 25.0393C190.192 24.8464 189.484 23.7535 188.52 22.725C186.27 20.2821 186.206 19.9607 188.263 17.9035C189.163 17.0035 189.87 16.0393 189.87 15.7178C189.87 14.3678 188.134 15.2035 186.142 17.4535L184.02 19.8964L184.342 17.1321C184.663 15.0107 184.534 14.4321 183.827 14.4321C183.184 14.4321 182.799 15.525 182.477 18.0964Z" fill="#ECECEC"/>
<path d="M84.8273 16.0393C82.8987 18.0321 83.863 18.9964 86.4344 17.6464C88.6844 16.425 87.7202 18.0964 85.3416 19.5107C83.4773 20.6036 83.0916 21.1821 83.2844 22.6607C83.413 24.1393 83.7987 24.4607 85.5987 24.5893C87.7202 24.7821 89.5844 23.8821 89.5844 22.6607C89.5844 22.275 88.7487 22.1464 87.6559 22.3393C84.8916 22.9178 84.763 21.825 87.3344 19.8321C88.9416 18.675 89.5844 17.6464 89.4559 16.7464C89.1987 15.0107 86.3059 14.5607 84.8273 16.0393Z" fill="#ECECEC"/>
<path d="M92.2844 16.6821C89.5844 20.0893 90.0344 26.0035 92.9272 26.0035C94.7272 26.0035 95.4344 25.4893 96.8486 23.4321C98.1344 21.6321 98.3272 17.0035 97.1701 15.8464C95.8844 14.5607 93.6344 14.9464 92.2844 16.6821ZM96.0129 19.6393C96.0129 20.6678 95.4344 22.0821 94.6629 22.8535C93.3772 24.1393 93.1844 24.1393 92.6701 23.175C91.9629 21.9535 92.5415 19.7035 93.9558 18.1607C95.1772 16.6821 96.0129 17.2607 96.0129 19.6393Z" fill="#ECECEC"/>
<path d="M110.606 15.525C110.413 15.8464 110.156 17.9036 110.027 20.2179C109.899 23.3679 110.027 24.3964 110.67 24.3964C111.249 24.3964 111.634 23.3036 111.763 20.9893C111.892 19.125 112.213 17.0036 112.406 16.3607C112.663 15.4607 112.534 15.075 111.827 15.075C111.313 15.075 110.734 15.2679 110.606 15.525Z" fill="#ECECEC"/>
<path d="M150.977 18.5464C150.72 20.4107 150.656 22.5321 150.785 23.175C151.042 24.7821 153.035 25.1035 154.513 23.7535C155.606 22.7893 155.735 22.7893 156.12 24.0107C156.635 25.6178 158.177 25.7464 159.785 24.2678C160.877 23.3035 160.942 23.3035 160.942 24.2678C160.942 24.9107 161.263 25.3607 161.649 25.3607C162.099 25.3607 162.227 26.0035 162.099 26.9678C161.584 29.3464 163.256 28.9607 164.092 26.5178C164.734 24.7821 164.67 24.2678 163.834 23.6893C162.934 22.9821 162.87 22.4035 163.449 19.1893C163.834 17.1964 164.027 15.3964 163.834 15.2035C163.256 14.625 161.584 15.7178 161.584 16.6821C161.584 17.9678 159.27 22.5964 158.306 23.175C157.727 23.4964 157.663 22.9178 157.985 20.7964C158.692 15.7821 158.692 15.525 157.92 15.2678C157.47 15.1393 156.442 16.5535 155.477 18.5464C153.292 23.2393 152.327 23.2393 152.906 18.6107C153.227 15.7178 153.163 15.075 152.327 15.075C151.685 15.075 151.235 16.1035 150.977 18.5464Z" fill="#ECECEC"/>
<path d="M173.606 15.525C173.413 15.8464 173.156 17.9036 173.092 20.2179C172.899 23.625 173.027 24.3964 173.799 24.3964C174.377 24.3964 174.827 23.6893 174.956 22.5964C175.149 21.2464 175.534 20.8607 176.692 20.8607C177.849 20.8607 178.234 21.2464 178.427 22.5964C178.556 23.5607 179.07 24.4607 179.584 24.5893C180.356 24.7179 180.549 23.8821 180.549 19.8964C180.549 16.6179 180.292 15.075 179.777 15.075C179.392 15.075 178.877 15.9107 178.62 17.0036C178.299 18.5464 177.849 18.9321 176.563 18.9321C175.084 18.9321 174.956 18.7393 175.342 17.0036C175.599 15.5893 175.47 15.075 174.763 15.075C174.313 15.075 173.734 15.2679 173.606 15.525Z" fill="#ECECEC"/>
<path d="M192.57 16.6821C189.87 20.0893 190.32 26.0035 193.213 26.0035C195.013 26.0035 195.72 25.4893 197.134 23.4321C198.42 21.6321 198.613 17.0035 197.456 15.8464C196.17 14.5607 193.92 14.9464 192.57 16.6821ZM196.299 19.6393C196.299 20.6678 195.72 22.0821 194.949 22.8535C193.663 24.1393 193.47 24.1393 192.956 23.175C192.249 21.9535 192.827 19.7035 194.241 18.1607C195.463 16.6821 196.299 17.2607 196.299 19.6393Z" fill="#ECECEC"/>
<path d="M74.7986 15.975C74.7986 16.1036 74.5415 17.7107 74.1557 19.5107C73.4486 23.3679 74.0915 25.3607 76.0843 25.3607C76.7272 25.3607 77.6914 24.7821 78.2057 24.075L79.1057 22.725L79.4914 24.075C79.6843 24.7821 80.1986 25.3607 80.7129 25.3607C81.3557 25.3607 81.5486 24.2679 81.42 21.0536C81.3557 18.4821 81.0343 16.6821 80.6486 16.6821C80.2629 16.6821 79.2986 17.9679 78.5272 19.575C76.7914 22.9179 74.9915 23.9464 75.6986 21.1821C76.92 16.425 76.92 15.7179 75.8272 15.7179C75.2486 15.7179 74.7986 15.8464 74.7986 15.975Z" fill="#ECECEC"/>
<path d="M114.656 15.975C114.656 16.1036 114.399 17.7107 114.013 19.5107C113.306 23.3679 113.949 25.3607 115.941 25.3607C116.649 25.3607 117.549 24.7179 117.934 23.9464L118.706 22.5321L119.22 23.9464C119.541 24.7179 120.249 25.3607 120.827 25.3607C121.534 25.3607 121.727 25.0393 121.47 24.3321C121.277 23.7536 121.084 21.7607 121.084 19.7679C121.084 15.6536 120.377 15.5893 118.384 19.575C117.549 21.1179 116.52 22.5321 116.006 22.6607C115.17 22.9179 115.234 22.275 116.391 17.1321C116.649 16.1036 116.456 15.7179 115.684 15.7179C115.106 15.7179 114.656 15.8464 114.656 15.975Z" fill="#ECECEC"/>
<path d="M117.227 33.075C117.227 34.9393 117.484 35.6464 118.192 35.6464C118.834 35.6464 119.156 34.9393 119.156 33.3964C119.156 31.4036 119.349 31.1464 120.763 31.1464C122.177 31.1464 122.37 31.4036 122.37 33.3964C122.37 34.9393 122.692 35.6464 123.334 35.6464C124.042 35.6464 124.299 34.9393 124.299 33.075V30.5036H120.763H117.227V33.075Z" fill="#ECECEC"/>
<path d="M126.227 33.075C126.227 36.0321 127.063 36.3536 129.249 34.2321L130.727 32.8821V34.2321C130.727 35.0679 131.113 35.6464 131.692 35.6464C132.399 35.6464 132.656 34.9393 132.656 33.075C132.656 30.1179 131.82 29.7964 129.634 31.9179L128.156 33.2679V31.9179C128.156 31.0821 127.77 30.5036 127.192 30.5036C126.484 30.5036 126.227 31.2107 126.227 33.075Z" fill="#ECECEC"/>
<path d="M134.713 31.275C132.72 33.2679 134.392 35.6464 137.863 35.6464C139.213 35.6464 140.499 35.325 140.756 34.9393C141.013 34.425 140.563 34.3607 139.277 34.6179C137.927 34.9393 137.092 34.7464 136.513 34.0393C135.227 32.4964 136.834 30.9536 139.277 31.5321C140.563 31.7893 141.013 31.725 140.756 31.2107C140.113 30.2464 135.677 30.3107 134.713 31.275Z" fill="#ECECEC"/>
<path d="M141.656 33.1393V35.7107L144.741 35.5178C147.249 35.325 147.763 35.1321 147.763 34.0393C147.763 33.075 147.249 32.6893 145.706 32.5607C144.356 32.4321 143.584 31.9821 143.584 31.4036C143.584 30.8893 143.134 30.5036 142.62 30.5036C141.913 30.5036 141.656 31.2107 141.656 33.1393ZM145.706 34.0393C145.77 34.3607 145.32 34.7464 144.741 34.875C144.034 35.0036 143.584 34.6821 143.584 34.0393C143.584 32.9464 145.513 32.8821 145.706 34.0393Z" fill="#ECECEC"/>
<path d="M148.727 33.075C148.727 34.9393 148.984 35.6464 149.692 35.6464C150.27 35.6464 150.656 35.0679 150.656 34.2964C150.656 33.1393 150.784 33.0107 151.684 33.7821C152.456 34.425 152.97 34.425 153.934 33.8464C154.963 33.1393 155.156 33.2679 155.156 34.3607C155.156 35.0679 155.606 35.6464 156.12 35.6464C156.827 35.6464 157.084 34.9393 157.084 33.075C157.084 30.9536 156.892 30.5036 155.863 30.5036C155.156 30.5036 154.192 31.0821 153.742 31.725C152.842 33.0107 152.842 33.0107 152.07 31.725C151.62 31.0821 150.72 30.5036 150.013 30.5036C148.92 30.5036 148.727 30.9536 148.727 33.075Z" fill="#ECECEC"/>
<path d="M158.756 31.4679C157.47 32.7536 157.47 33.3321 158.756 34.6179C159.913 35.8393 164.477 36.0321 165.184 34.9393C165.506 34.425 165.12 34.2964 163.963 34.6179C162.163 35.0679 160.299 34.5536 160.299 33.6536C160.299 33.3321 161.456 33.075 162.934 33.075C165.056 33.075 165.506 32.8821 165.313 31.9179C165.056 30.375 160.234 30.0536 158.756 31.4679ZM163.192 31.7893C163.449 32.175 162.87 32.4321 161.906 32.4321C160.942 32.4321 160.363 32.175 160.62 31.7893C160.813 31.4036 161.392 31.1464 161.906 31.1464C162.42 31.1464 162.999 31.4036 163.192 31.7893Z" fill="#ECECEC"/>
<path d="M166.727 33.075C166.727 34.9393 166.984 35.6464 167.692 35.6464C168.206 35.6464 168.656 35.0679 168.656 34.3607C168.656 33.525 169.106 33.075 169.942 33.075C170.777 33.075 171.227 33.525 171.227 34.3607C171.227 35.0679 171.677 35.6464 172.192 35.6464C172.899 35.6464 173.156 34.9393 173.156 33.075C173.156 31.2107 172.899 30.5036 172.192 30.5036C171.677 30.5036 171.227 30.9536 171.227 31.4679C171.227 31.9821 170.649 32.4321 169.942 32.4321C169.234 32.4321 168.656 31.9821 168.656 31.4679C168.656 30.9536 168.206 30.5036 167.692 30.5036C166.984 30.5036 166.727 31.2107 166.727 33.075Z" fill="#ECECEC"/>
<path d="M175.084 33.075C175.084 34.9393 175.342 35.6464 176.049 35.6464C176.563 35.6464 177.013 35.0679 177.013 34.3607C177.013 33.3964 177.463 33.075 178.62 33.075C179.777 33.075 180.227 33.3964 180.227 34.3607C180.227 35.0679 180.677 35.6464 181.192 35.6464C181.899 35.6464 182.156 34.9393 182.156 33.075C182.156 31.2107 181.899 30.5036 181.192 30.5036C180.677 30.5036 180.227 30.9536 180.227 31.4679C180.227 32.0464 179.649 32.4321 178.62 32.4321C177.592 32.4321 177.013 32.0464 177.013 31.4679C177.013 30.9536 176.563 30.5036 176.049 30.5036C175.342 30.5036 175.084 31.2107 175.084 33.075Z" fill="#ECECEC"/>
<path d="M183.441 33.075C183.441 36.0964 184.277 36.3536 186.784 33.9107L188.584 32.175V33.9107C188.584 35.0036 188.906 35.6464 189.549 35.6464C190.256 35.6464 190.513 34.9393 190.513 33.075C190.513 30.0536 189.227 29.6679 186.849 31.9179L185.37 33.2679V31.9179C185.37 31.0821 184.984 30.5036 184.406 30.5036C183.699 30.5036 183.441 31.2107 183.441 33.075Z" fill="#ECECEC"/>
<path d="M191.799 33.075C191.799 34.9393 192.056 35.6464 192.763 35.6464C193.341 35.6464 193.727 35.0679 193.727 34.2321V32.8821L195.206 34.2321C196.041 35.0036 197.263 35.6464 197.906 35.6464C198.999 35.6464 198.934 35.4536 197.52 33.975C195.977 32.3679 195.977 32.3036 197.199 31.4036C198.42 30.5679 198.42 30.5036 197.263 30.5036C196.62 30.5036 195.527 30.9536 194.884 31.5964C193.791 32.5607 193.727 32.5607 193.727 31.5964C193.727 30.9536 193.277 30.5036 192.763 30.5036C192.056 30.5036 191.799 31.2107 191.799 33.075Z" fill="#ECECEC"/>
<defs>
<filter id="filter0_d_39_3" x="0" y="0" width="53" height="53" filterUnits="userSpaceOnUse" color-interpolation-filters="sRGB">
<feFlood flood-opacity="0" result="BackgroundImageFix"/>
<feColorMatrix in="SourceAlpha" type="matrix" values="0 0 0 0 0 0 0 0 0 0 0 0 0 0 0 0 0 0 127 0" result="hardAlpha"/>
<feOffset dy="4"/>
<feGaussianBlur stdDeviation="2"/>
<feComposite in2="hardAlpha" operator="out"/>
<feColorMatrix type="matrix" values="0 0 0 0 0 0 0 0 0 0 0 0 0 0 0 0 0 0 0.25 0"/>
<feBlend mode="normal" in2="BackgroundImageFix" result="effect1_dropShadow_39_3"/>
<feBlend mode="normal" in="SourceGraphic" in2="effect1_dropShadow_39_3" result="shape"/>
</filter>
<linearGradient id="paint0_linear_39_3" x1="20.5256" y1="37.6133" x2="20.5256" y2="17.955" gradientUnits="userSpaceOnUse">
<stop stop-color="#00D83D"/>
<stop offset="1" stop-color="#039948"/>
</linearGradient>
<clipPath id="clip0_39_3">
<rect width="45" height="45" fill="white" transform="translate(4)"/>
</clipPath>
</defs>
</svg>
